<?xml version="1.0" encoding="UTF-8" standalone="no"?>
<!-- Created with Inkscape (http://www.inkscape.org/) -->

<svg
   version="1.1"
   id="svg2"
   xml:space="preserve"
   width="192"
   height="144"
   viewBox="0 0 192 144"
   sodipodi:docname="Houseplate_Flat_Color.ai"
   xmlns:inkscape="http://www.inkscape.org/namespaces/inkscape"
   xmlns:sodipodi="http://sodipodi.sourceforge.net/DTD/sodipodi-0.dtd"
   xmlns="http://www.w3.org/2000/svg"
   xmlns:svg="http://www.w3.org/2000/svg"><defs
     id="defs6"><clipPath
       clipPathUnits="userSpaceOnUse"
       id="clipPath16"><path
         d="M 0,108 H 144 V 0 H 0 Z"
         id="path14" /></clipPath></defs><sodipodi:namedview
     id="namedview4"
     pagecolor="#ffffff"
     bordercolor="#666666"
     borderopacity="1.0"
     inkscape:pageshadow="2"
     inkscape:pageopacity="0.0"
     inkscape:pagecheckerboard="0" /><g
     id="g8"
     inkscape:groupmode="layer"
     inkscape:label="Houseplate_Flat_Color"
     transform="matrix(1.3333333,0,0,-1.3333333,0,144)"><g
       id="g10"><g
         id="g12"
         clip-path="url(#clipPath16)"><path
           d="m 74.71,9.092 50.943,84.966 H 23.767 Z"
           style="fill:#231f20;fill-opacity:1;fill-rule:nonzero;stroke:none"
           id="path18" /><path
           d="M 120.021,90.868 H 29.399 C 31.723,86.992 72.5,18.982 74.71,15.295 c 2.21,3.687 42.987,71.697 45.311,75.573"
           style="fill:#bf2519;fill-opacity:1;fill-rule:nonzero;stroke:none"
           id="path20" /><path
           d="M 63.061,87.245 H 62.725 37.954 37.369 36.155 l 0.606,-1.048 0.305,-0.533 4.893,-8.483 0.093,-0.164 0.202,-0.353 h 0.406 0.189 4.64 0.594 1.212 l -0.613,1.044 -0.301,0.533 -1.587,2.741 h 3.897 V 62.134 62.039 61.844 l 0.102,-0.164 0.051,-0.083 H 50.84 l 3.301,-5.714 0.756,-1.314 0.624,-1.087 1.302,-2.253 v 2.608 1.263 25.887 l 5.902,-0.005 h 0.331 0.698 v 0.698 0.351 4.166 0.345 0.703 z"
           style="fill:#231f20;fill-opacity:1;fill-rule:nonzero;stroke:none"
           id="path22" /><path
           d="m 88.234,44.428 -0.095,0.177 -11.52,21.354 10.315,19.807 0.27,0.518 0.532,1.025 H 86.581 86.02 81.227 81.023 80.596 L 80.4,86.921 80.304,86.739 71.558,69.688 71.565,86.242 v 0.352 0.696 H 70.867 70.531 66.485 66.14 65.447 V 86.594 86.242 38.279 38.184 37.992 l 0.097,-0.156 0.042,-0.083 4.05,-7.022 0.623,-1.079 1.299,-2.255 V 30 31.262 62.297 l 12.353,-22.883 0.284,-0.521 0.592,-1.106 0.63,1.084 0.293,0.52 2.421,4.178 0.099,0.17 0.194,0.339 z"
           style="fill:#231f20;fill-opacity:1;fill-rule:nonzero;stroke:none"
           id="path24" /><path
           d="M 112.335,87.245 H 111.744 89.188 88.853 88.152 V 86.542 86.197 79.429 C 88.146,79.401 88.146,79.386 88.139,79.356 88.135,79.308 88.135,79.25 88.131,79.181 V 78.978 55.231 54.884 54.183 h 0.699 0.336 4.693 0.198 0.405 l 0.196,0.347 0.101,0.172 7.948,13.758 0.303,0.53 0.604,1.05 h -1.21 -0.592 H 97.1 96.91 96.512 L 96.311,69.688 96.21,69.52 94.103,65.941 v 5.317 h 2.979 0.335 0.7 v 0.698 0.35 4.368 0.348 0.701 h -0.7 -0.335 -2.817 v 3.295 h 8.6 l -1.601,-2.777 -0.307,-0.533 -0.604,-1.044 h 1.211 0.594 4.699 0.189 0.404 l 0.202,0.345 0.093,0.172 4.895,8.483 0.305,0.533 0.606,1.048 z"
           style="fill:#231f20;fill-opacity:1;fill-rule:nonzero;stroke:none"
           id="path26" /><path
           d="M 111.149,86.04 H 89.524 89.326 v -0.199 -6.863 c 0,-0.05 0,-0.102 -0.003,-0.147 H 89.3 V 78.633 55.577 55.379 h 0.198 4.18 0.114 l 0.057,0.099 7.547,13.058 0.172,0.296 h -0.343 -3.938 -0.113 L 97.116,68.734 93.18,62.042 c 0,0 -0.121,-0.204 -0.253,-0.428 l 0.003,0.511 v 3.311 6.87 0.147 h 0.138 3.678 0.198 v 0.198 3.675 0.197 H 96.746 93.23 93.092 v 0.151 5.392 0.158 h 0.138 11.44 0.256 l -0.137,-0.238 c 0.002,10e-4 -2.21,-3.83 -2.21,-3.83 l -0.172,-0.296 h 0.343 3.918 0.113 l 0.058,0.098 4.481,7.785 0.171,0.297 z"
           style="fill:#ffffff;fill-opacity:1;fill-rule:nonzero;stroke:none"
           id="path28" /><path
           d="M 62.386,86.04 H 38.548 38.206 l 0.171,-0.297 4.496,-7.785 0.057,-0.098 h 0.114 3.85 0.343 l -0.172,0.297 -2.19,3.786 c 0,-0.001 -0.066,0.115 -0.136,0.238 h 0.259 6.727 0.141 v -0.15 -19.803 -0.053 l 0.027,-0.046 3.254,-5.637 c 0.001,-0.003 0.134,-0.228 0.134,-0.228 l 0.367,-0.623 v 0.723 25.667 0.154 h 0.137 l 6.601,-0.004 h 0.197 v 0.198 3.462 0.199 z"
           style="fill:#ffffff;fill-opacity:1;fill-rule:nonzero;stroke:none"
           id="path30" /><path
           d="M 87.019,44.199 75.326,65.872 c -0.002,0.001 -0.023,0.041 -0.046,0.078 l 0.04,0.076 c 0,-10e-4 10.315,19.787 10.315,19.787 l 0.15,0.291 H 85.459 81.43 81.309 L 81.254,85.996 72.065,68.087 72.024,68.006 h -0.08 -1.413 -0.142 v 0.157 l 0.007,17.731 v 0.197 H 70.198 66.817 66.62 V 85.894 38.379 38.325 l 0.027,-0.045 3.374,-5.852 0.368,-0.639 v 0.738 31.272 0.15 h 0.142 1.402 0.078 l 0.037,-0.071 c 0,-10e-4 12.608,-23.357 12.608,-23.357 l 0.168,-0.313 0.176,0.307 2.016,3.493 0.056,0.095 z"
           style="fill:#ffffff;fill-opacity:1;fill-rule:nonzero;stroke:none"
           id="path32" /></g></g></g></svg>
